<svg xmlns="http://www.w3.org/2000/svg" aria-hidden="true" style="position:absolute;width:0;height:0;overflow:hidden">
  <defs>
    <symbol id="icon-close" viewBox="0 0 32 32">
      <path fill="none" stroke="#00fff7" stroke-miterlimit="10" stroke-width="2.667" d="m4.685 4.685 22.63 22.63M4.685 27.315l22.63-22.63" style="stroke:var(--color1, #00fff7)"/>
    </symbol>
    <symbol id="icon-down-arrow" viewBox="0 0 61 32">
      <path fill="#fff" d="M60.719 4.357c.41.336.615.722.615 1.159s-.205.823-.615 1.159L32.081 30.162c-.41.336-.881.504-1.414.504s-1.004-.168-1.414-.504L.614 6.675c-.41-.336-.615-.722-.615-1.159s.205-.823.615-1.159l3.073-2.52c.41-.336.881-.504 1.414-.504s1.004.168 1.413.504l24.152 19.808L54.818 1.837c.41-.336.881-.504 1.414-.504s1.004.168 1.413.504l3.073 2.52z" style="fill:var(--color2, #fff)"/>
    </symbol>
    <symbol id="icon-menu" viewBox="0 0 32 32">
      <path fill="#00fff7" d="M4 24h24v-2.667H4V24zm0-6.667h24v-2.667H4v2.667zM4 8v2.667h24V8H4z" style="fill:var(--color1, #00fff7)"/>
    </symbol>
    <symbol id="icon-back-arrow" viewBox="0 0 18 23">
      <path d="M8.20215 11.4989L12.1846 7.60489C12.3942 7.3988 12.5118 7.12 12.5118 6.82939C12.5118 6.53879 12.3942 6.25999 12.1846 6.05389C12.0801 5.95079 11.9556 5.86896 11.8185 5.81311C11.6815 5.75727 11.5344 5.72852 11.3859 5.72852C11.2374 5.72852 11.0903 5.75727 10.9532 5.81311C10.8162 5.86896 10.6917 5.95079 10.5871 6.05389L5.81715 10.7179C5.7117 10.8202 5.62801 10.9418 5.5709 11.0759C5.51378 11.2099 5.48438 11.3537 5.48438 11.4989C5.48438 11.6441 5.51378 11.7879 5.5709 11.9219C5.62801 12.056 5.7117 12.1776 5.81715 12.2799L10.5871 16.9989C10.6923 17.1008 10.8169 17.1815 10.954 17.2362C11.0911 17.291 11.2378 17.3187 11.3859 17.3179C11.534 17.3187 11.6807 17.291 11.8178 17.2362C11.9549 17.1815 12.0795 17.1008 12.1846 16.9989C12.3942 16.7928 12.5118 16.514 12.5118 16.2234C12.5118 15.9328 12.3942 15.654 12.1846 15.4479L8.20215 11.4989Z" fill="#101010" />
    </symbol>

  </defs>
</svg>
